<mxfile host="app.diagrams.net" agent="Mozilla/5.0 (Macintosh; Intel Mac OS X 10_15_7) AppleWebKit/537.36 (KHTML, like Gecko) Chrome/133.0.0.0 Safari/537.36" version="26.1.0">
  <diagram name="第 1 页" id="RbU5gxEfXH_Vre7Q2fpe">
    <mxGraphModel dx="1026" dy="593" grid="1" gridSize="10" guides="1" tooltips="1" connect="1" arrows="1" fold="1" page="1" pageScale="1" pageWidth="827" pageHeight="1169" math="0" shadow="0">
      <root>
        <mxCell id="0" />
        <mxCell id="1" parent="0" />
        <mxCell id="nkl6P5YwcKEevRgPJDIq-1" value="0" style="rounded=0;whiteSpace=wrap;html=1;fillColor=#ffe6cc;strokeColor=#d79b00;" vertex="1" parent="1">
          <mxGeometry x="210" y="110" width="40" height="40" as="geometry" />
        </mxCell>
        <mxCell id="nkl6P5YwcKEevRgPJDIq-2" value="1" style="rounded=0;whiteSpace=wrap;html=1;fillColor=#ffe6cc;strokeColor=#d79b00;" vertex="1" parent="1">
          <mxGeometry x="250" y="110" width="40" height="40" as="geometry" />
        </mxCell>
        <mxCell id="nkl6P5YwcKEevRgPJDIq-10" value="0" style="rounded=0;whiteSpace=wrap;html=1;fillColor=#ffe6cc;strokeColor=#d79b00;" vertex="1" parent="1">
          <mxGeometry x="290" y="110" width="40" height="40" as="geometry" />
        </mxCell>
        <mxCell id="nkl6P5YwcKEevRgPJDIq-11" value="0" style="rounded=0;whiteSpace=wrap;html=1;fillColor=#ffe6cc;strokeColor=#d79b00;" vertex="1" parent="1">
          <mxGeometry x="330" y="110" width="40" height="40" as="geometry" />
        </mxCell>
        <mxCell id="nkl6P5YwcKEevRgPJDIq-15" value="4" style="rounded=0;whiteSpace=wrap;html=1;fillColor=#dae8fc;strokeColor=#6c8ebf;" vertex="1" parent="1">
          <mxGeometry x="250" y="40" width="80" height="50" as="geometry" />
        </mxCell>
        <mxCell id="nkl6P5YwcKEevRgPJDIq-16" value="1" style="rounded=0;whiteSpace=wrap;html=1;fillColor=#ffe6cc;strokeColor=#d79b00;" vertex="1" parent="1">
          <mxGeometry x="414" y="110" width="40" height="40" as="geometry" />
        </mxCell>
        <mxCell id="nkl6P5YwcKEevRgPJDIq-17" value="1" style="rounded=0;whiteSpace=wrap;html=1;fillColor=#ffe6cc;strokeColor=#d79b00;" vertex="1" parent="1">
          <mxGeometry x="454" y="110" width="40" height="40" as="geometry" />
        </mxCell>
        <mxCell id="nkl6P5YwcKEevRgPJDIq-18" value="1" style="rounded=0;whiteSpace=wrap;html=1;fillColor=#ffe6cc;strokeColor=#d79b00;" vertex="1" parent="1">
          <mxGeometry x="494" y="110" width="40" height="40" as="geometry" />
        </mxCell>
        <mxCell id="nkl6P5YwcKEevRgPJDIq-51" style="edgeStyle=orthogonalEdgeStyle;rounded=0;orthogonalLoop=1;jettySize=auto;html=1;exitX=1;exitY=0.5;exitDx=0;exitDy=0;entryX=0.5;entryY=0;entryDx=0;entryDy=0;" edge="1" parent="1" source="nkl6P5YwcKEevRgPJDIq-19" target="nkl6P5YwcKEevRgPJDIq-47">
          <mxGeometry relative="1" as="geometry">
            <Array as="points">
              <mxPoint x="675" y="130" />
            </Array>
          </mxGeometry>
        </mxCell>
        <mxCell id="nkl6P5YwcKEevRgPJDIq-19" value="0" style="rounded=0;whiteSpace=wrap;html=1;fillColor=#ffe6cc;strokeColor=#d79b00;" vertex="1" parent="1">
          <mxGeometry x="534" y="110" width="40" height="40" as="geometry" />
        </mxCell>
        <mxCell id="nkl6P5YwcKEevRgPJDIq-20" value="-3" style="rounded=0;whiteSpace=wrap;html=1;fillColor=#dae8fc;strokeColor=#6c8ebf;" vertex="1" parent="1">
          <mxGeometry x="454" y="40" width="80" height="50" as="geometry" />
        </mxCell>
        <mxCell id="nkl6P5YwcKEevRgPJDIq-23" value="" style="edgeStyle=orthogonalEdgeStyle;rounded=0;orthogonalLoop=1;jettySize=auto;html=1;" edge="1" parent="1" source="nkl6P5YwcKEevRgPJDIq-21" target="nkl6P5YwcKEevRgPJDIq-22">
          <mxGeometry relative="1" as="geometry" />
        </mxCell>
        <mxCell id="nkl6P5YwcKEevRgPJDIq-21" value="" style="shape=curlyBracket;whiteSpace=wrap;html=1;rounded=1;labelPosition=left;verticalLabelPosition=middle;align=right;verticalAlign=middle;" vertex="1" parent="1">
          <mxGeometry x="160" y="110" width="20" height="40" as="geometry" />
        </mxCell>
        <mxCell id="nkl6P5YwcKEevRgPJDIq-22" value="原码" style="whiteSpace=wrap;html=1;align=right;rounded=1;fillColor=#f8cecc;strokeColor=#b85450;" vertex="1" parent="1">
          <mxGeometry x="100" y="115" width="30" height="30" as="geometry" />
        </mxCell>
        <mxCell id="nkl6P5YwcKEevRgPJDIq-24" value="0" style="rounded=0;whiteSpace=wrap;html=1;fillColor=#ffe6cc;strokeColor=#d79b00;" vertex="1" parent="1">
          <mxGeometry x="210" y="180" width="40" height="40" as="geometry" />
        </mxCell>
        <mxCell id="nkl6P5YwcKEevRgPJDIq-25" value="1" style="rounded=0;whiteSpace=wrap;html=1;fillColor=#ffe6cc;strokeColor=#d79b00;" vertex="1" parent="1">
          <mxGeometry x="250" y="180" width="40" height="40" as="geometry" />
        </mxCell>
        <mxCell id="nkl6P5YwcKEevRgPJDIq-26" value="0" style="rounded=0;whiteSpace=wrap;html=1;fillColor=#ffe6cc;strokeColor=#d79b00;" vertex="1" parent="1">
          <mxGeometry x="290" y="180" width="40" height="40" as="geometry" />
        </mxCell>
        <mxCell id="nkl6P5YwcKEevRgPJDIq-27" value="0" style="rounded=0;whiteSpace=wrap;html=1;fillColor=#ffe6cc;strokeColor=#d79b00;" vertex="1" parent="1">
          <mxGeometry x="330" y="180" width="40" height="40" as="geometry" />
        </mxCell>
        <mxCell id="nkl6P5YwcKEevRgPJDIq-28" value="1" style="rounded=0;whiteSpace=wrap;html=1;fillColor=#ffe6cc;strokeColor=#d79b00;" vertex="1" parent="1">
          <mxGeometry x="414" y="180" width="40" height="40" as="geometry" />
        </mxCell>
        <mxCell id="nkl6P5YwcKEevRgPJDIq-29" value="0" style="rounded=0;whiteSpace=wrap;html=1;fillColor=#ffe6cc;strokeColor=#d79b00;" vertex="1" parent="1">
          <mxGeometry x="454" y="180" width="40" height="40" as="geometry" />
        </mxCell>
        <mxCell id="nkl6P5YwcKEevRgPJDIq-30" value="0" style="rounded=0;whiteSpace=wrap;html=1;fillColor=#ffe6cc;strokeColor=#d79b00;" vertex="1" parent="1">
          <mxGeometry x="494" y="180" width="40" height="40" as="geometry" />
        </mxCell>
        <mxCell id="nkl6P5YwcKEevRgPJDIq-54" style="edgeStyle=orthogonalEdgeStyle;rounded=0;orthogonalLoop=1;jettySize=auto;html=1;exitX=1;exitY=0.75;exitDx=0;exitDy=0;entryX=0.5;entryY=0;entryDx=0;entryDy=0;" edge="1" parent="1" source="nkl6P5YwcKEevRgPJDIq-31" target="nkl6P5YwcKEevRgPJDIq-53">
          <mxGeometry relative="1" as="geometry">
            <Array as="points">
              <mxPoint x="675" y="210" />
            </Array>
          </mxGeometry>
        </mxCell>
        <mxCell id="nkl6P5YwcKEevRgPJDIq-31" value="1" style="rounded=0;whiteSpace=wrap;html=1;fillColor=#ffe6cc;strokeColor=#d79b00;" vertex="1" parent="1">
          <mxGeometry x="534" y="180" width="40" height="40" as="geometry" />
        </mxCell>
        <mxCell id="nkl6P5YwcKEevRgPJDIq-32" value="" style="edgeStyle=orthogonalEdgeStyle;rounded=0;orthogonalLoop=1;jettySize=auto;html=1;" edge="1" parent="1" source="nkl6P5YwcKEevRgPJDIq-33" target="nkl6P5YwcKEevRgPJDIq-34">
          <mxGeometry relative="1" as="geometry" />
        </mxCell>
        <mxCell id="nkl6P5YwcKEevRgPJDIq-33" value="" style="shape=curlyBracket;whiteSpace=wrap;html=1;rounded=1;labelPosition=left;verticalLabelPosition=middle;align=right;verticalAlign=middle;" vertex="1" parent="1">
          <mxGeometry x="160" y="180" width="20" height="40" as="geometry" />
        </mxCell>
        <mxCell id="nkl6P5YwcKEevRgPJDIq-34" value="反码" style="whiteSpace=wrap;html=1;align=right;rounded=1;fillColor=#f8cecc;strokeColor=#b85450;" vertex="1" parent="1">
          <mxGeometry x="100" y="185" width="30" height="30" as="geometry" />
        </mxCell>
        <mxCell id="nkl6P5YwcKEevRgPJDIq-35" value="0" style="rounded=0;whiteSpace=wrap;html=1;fillColor=#ffe6cc;strokeColor=#d79b00;" vertex="1" parent="1">
          <mxGeometry x="210" y="250" width="40" height="40" as="geometry" />
        </mxCell>
        <mxCell id="nkl6P5YwcKEevRgPJDIq-36" value="1" style="rounded=0;whiteSpace=wrap;html=1;fillColor=#ffe6cc;strokeColor=#d79b00;" vertex="1" parent="1">
          <mxGeometry x="250" y="250" width="40" height="40" as="geometry" />
        </mxCell>
        <mxCell id="nkl6P5YwcKEevRgPJDIq-37" value="0" style="rounded=0;whiteSpace=wrap;html=1;fillColor=#ffe6cc;strokeColor=#d79b00;" vertex="1" parent="1">
          <mxGeometry x="290" y="250" width="40" height="40" as="geometry" />
        </mxCell>
        <mxCell id="nkl6P5YwcKEevRgPJDIq-38" value="0" style="rounded=0;whiteSpace=wrap;html=1;fillColor=#ffe6cc;strokeColor=#d79b00;" vertex="1" parent="1">
          <mxGeometry x="330" y="250" width="40" height="40" as="geometry" />
        </mxCell>
        <mxCell id="nkl6P5YwcKEevRgPJDIq-39" value="1" style="rounded=0;whiteSpace=wrap;html=1;fillColor=#ffe6cc;strokeColor=#d79b00;" vertex="1" parent="1">
          <mxGeometry x="414" y="250" width="40" height="40" as="geometry" />
        </mxCell>
        <mxCell id="nkl6P5YwcKEevRgPJDIq-40" value="1" style="rounded=0;whiteSpace=wrap;html=1;fillColor=#ffe6cc;strokeColor=#d79b00;" vertex="1" parent="1">
          <mxGeometry x="454" y="250" width="40" height="40" as="geometry" />
        </mxCell>
        <mxCell id="nkl6P5YwcKEevRgPJDIq-41" value="1" style="rounded=0;whiteSpace=wrap;html=1;fillColor=#ffe6cc;strokeColor=#d79b00;" vertex="1" parent="1">
          <mxGeometry x="494" y="250" width="40" height="40" as="geometry" />
        </mxCell>
        <mxCell id="nkl6P5YwcKEevRgPJDIq-42" value="0" style="rounded=0;whiteSpace=wrap;html=1;fillColor=#ffe6cc;strokeColor=#d79b00;" vertex="1" parent="1">
          <mxGeometry x="534" y="250" width="40" height="40" as="geometry" />
        </mxCell>
        <mxCell id="nkl6P5YwcKEevRgPJDIq-43" value="" style="edgeStyle=orthogonalEdgeStyle;rounded=0;orthogonalLoop=1;jettySize=auto;html=1;" edge="1" parent="1" source="nkl6P5YwcKEevRgPJDIq-44" target="nkl6P5YwcKEevRgPJDIq-45">
          <mxGeometry relative="1" as="geometry" />
        </mxCell>
        <mxCell id="nkl6P5YwcKEevRgPJDIq-44" value="" style="shape=curlyBracket;whiteSpace=wrap;html=1;rounded=1;labelPosition=left;verticalLabelPosition=middle;align=right;verticalAlign=middle;" vertex="1" parent="1">
          <mxGeometry x="160" y="250" width="20" height="40" as="geometry" />
        </mxCell>
        <mxCell id="nkl6P5YwcKEevRgPJDIq-45" value="补码" style="whiteSpace=wrap;html=1;align=right;rounded=1;fillColor=#f8cecc;strokeColor=#b85450;" vertex="1" parent="1">
          <mxGeometry x="100" y="255" width="30" height="30" as="geometry" />
        </mxCell>
        <mxCell id="nkl6P5YwcKEevRgPJDIq-52" style="edgeStyle=orthogonalEdgeStyle;rounded=0;orthogonalLoop=1;jettySize=auto;html=1;exitX=0.5;exitY=1;exitDx=0;exitDy=0;entryX=1;entryY=0.25;entryDx=0;entryDy=0;" edge="1" parent="1" source="nkl6P5YwcKEevRgPJDIq-47" target="nkl6P5YwcKEevRgPJDIq-31">
          <mxGeometry relative="1" as="geometry">
            <Array as="points">
              <mxPoint x="675" y="190" />
            </Array>
          </mxGeometry>
        </mxCell>
        <mxCell id="nkl6P5YwcKEevRgPJDIq-47" value="符号位不变，按位取反" style="whiteSpace=wrap;html=1;fillColor=#d5e8d4;strokeColor=#82b366;rounded=0;" vertex="1" parent="1">
          <mxGeometry x="610" y="150" width="130" height="25" as="geometry" />
        </mxCell>
        <mxCell id="nkl6P5YwcKEevRgPJDIq-55" style="edgeStyle=orthogonalEdgeStyle;rounded=0;orthogonalLoop=1;jettySize=auto;html=1;exitX=0.5;exitY=1;exitDx=0;exitDy=0;entryX=1;entryY=0.5;entryDx=0;entryDy=0;" edge="1" parent="1" source="nkl6P5YwcKEevRgPJDIq-53" target="nkl6P5YwcKEevRgPJDIq-42">
          <mxGeometry relative="1" as="geometry" />
        </mxCell>
        <mxCell id="nkl6P5YwcKEevRgPJDIq-53" value="原码 +1" style="whiteSpace=wrap;html=1;fillColor=#d5e8d4;strokeColor=#82b366;rounded=0;" vertex="1" parent="1">
          <mxGeometry x="610" y="225" width="130" height="25" as="geometry" />
        </mxCell>
        <mxCell id="nkl6P5YwcKEevRgPJDIq-56" value="0" style="rounded=0;whiteSpace=wrap;html=1;fillColor=#ffe6cc;strokeColor=#d79b00;" vertex="1" parent="1">
          <mxGeometry x="310" y="350" width="40" height="40" as="geometry" />
        </mxCell>
        <mxCell id="nkl6P5YwcKEevRgPJDIq-57" value="1" style="rounded=0;whiteSpace=wrap;html=1;fillColor=#ffe6cc;strokeColor=#d79b00;" vertex="1" parent="1">
          <mxGeometry x="350" y="350" width="40" height="40" as="geometry" />
        </mxCell>
        <mxCell id="nkl6P5YwcKEevRgPJDIq-58" value="0" style="rounded=0;whiteSpace=wrap;html=1;fillColor=#ffe6cc;strokeColor=#d79b00;" vertex="1" parent="1">
          <mxGeometry x="390" y="350" width="40" height="40" as="geometry" />
        </mxCell>
        <mxCell id="nkl6P5YwcKEevRgPJDIq-59" value="0" style="rounded=0;whiteSpace=wrap;html=1;fillColor=#ffe6cc;strokeColor=#d79b00;" vertex="1" parent="1">
          <mxGeometry x="430" y="350" width="40" height="40" as="geometry" />
        </mxCell>
        <mxCell id="nkl6P5YwcKEevRgPJDIq-60" value="1" style="rounded=0;whiteSpace=wrap;html=1;fillColor=#ffe6cc;strokeColor=#d79b00;" vertex="1" parent="1">
          <mxGeometry x="310" y="410" width="40" height="40" as="geometry" />
        </mxCell>
        <mxCell id="nkl6P5YwcKEevRgPJDIq-61" value="1" style="rounded=0;whiteSpace=wrap;html=1;fillColor=#ffe6cc;strokeColor=#d79b00;" vertex="1" parent="1">
          <mxGeometry x="350" y="410" width="40" height="40" as="geometry" />
        </mxCell>
        <mxCell id="nkl6P5YwcKEevRgPJDIq-62" value="1" style="rounded=0;whiteSpace=wrap;html=1;fillColor=#ffe6cc;strokeColor=#d79b00;" vertex="1" parent="1">
          <mxGeometry x="390" y="410" width="40" height="40" as="geometry" />
        </mxCell>
        <mxCell id="nkl6P5YwcKEevRgPJDIq-63" value="0" style="rounded=0;whiteSpace=wrap;html=1;fillColor=#ffe6cc;strokeColor=#d79b00;" vertex="1" parent="1">
          <mxGeometry x="430" y="410" width="40" height="40" as="geometry" />
        </mxCell>
        <mxCell id="nkl6P5YwcKEevRgPJDIq-64" value="" style="line;strokeWidth=2;html=1;" vertex="1" parent="1">
          <mxGeometry x="264" y="470" width="230" height="10" as="geometry" />
        </mxCell>
        <mxCell id="nkl6P5YwcKEevRgPJDIq-65" value="+" style="text;strokeColor=none;fillColor=none;html=1;fontSize=24;fontStyle=1;verticalAlign=middle;align=center;" vertex="1" parent="1">
          <mxGeometry x="230" y="380" width="100" height="40" as="geometry" />
        </mxCell>
        <mxCell id="nkl6P5YwcKEevRgPJDIq-66" value="0" style="rounded=0;whiteSpace=wrap;html=1;fillColor=#ffe6cc;strokeColor=#d79b00;" vertex="1" parent="1">
          <mxGeometry x="310" y="490" width="40" height="40" as="geometry" />
        </mxCell>
        <mxCell id="nkl6P5YwcKEevRgPJDIq-67" value="0" style="rounded=0;whiteSpace=wrap;html=1;fillColor=#ffe6cc;strokeColor=#d79b00;" vertex="1" parent="1">
          <mxGeometry x="350" y="490" width="40" height="40" as="geometry" />
        </mxCell>
        <mxCell id="nkl6P5YwcKEevRgPJDIq-68" value="1" style="rounded=0;whiteSpace=wrap;html=1;fillColor=#ffe6cc;strokeColor=#d79b00;" vertex="1" parent="1">
          <mxGeometry x="390" y="490" width="40" height="40" as="geometry" />
        </mxCell>
        <mxCell id="nkl6P5YwcKEevRgPJDIq-69" value="0" style="rounded=0;whiteSpace=wrap;html=1;fillColor=#ffe6cc;strokeColor=#d79b00;" vertex="1" parent="1">
          <mxGeometry x="430" y="490" width="40" height="40" as="geometry" />
        </mxCell>
        <mxCell id="nkl6P5YwcKEevRgPJDIq-70" value="1" style="rounded=0;whiteSpace=wrap;html=1;fillColor=#ffe6cc;strokeColor=#d79b00;dashed=1;" vertex="1" parent="1">
          <mxGeometry x="260" y="490" width="40" height="40" as="geometry" />
        </mxCell>
        <mxCell id="nkl6P5YwcKEevRgPJDIq-71" value="溢出，丢掉" style="rounded=0;whiteSpace=wrap;html=1;fillColor=#ffe6cc;strokeColor=#d79b00;dashed=1;" vertex="1" parent="1">
          <mxGeometry x="150" y="490" width="90" height="40" as="geometry" />
        </mxCell>
      </root>
    </mxGraphModel>
  </diagram>
</mxfile>
